<svg fill="none" height="48" viewBox="0 0 48 48" width="48" xmlns="http://www.w3.org/2000/svg"><path d="m16.0393 31.1416c.4081-1.469 1.2274-2.7906 2.3615-3.8094l20.3784-18.30906c1.6434-1.47642 4.1724-1.34114 5.6488.30216s1.3412 4.1724-.3022 5.6488l-20.3784 18.3089c-1.134 1.019-2.5356 1.6926-4.0396 1.9416l-1.9415.3216c-1.4423.2388-2.6451-1.1-2.2537-2.5086z" fill="#0e5fe3"/><path clip-rule="evenodd" d="m12 40.3498h16.8696c2.2092 0 4-1.7908 4-4v-25.9999c0-2.20919-1.7908-4.00005-4-4.00005h-8.431c-1.054 0-2.0655.41608-2.8145 1.15778l-8.43868 8.35667c-.7586.7512-1.18542 1.7745-1.18542 2.8422v17.6433c0 2.2092 1.79086 4 4 4zm-5.62916-27.3277c-1.51722 1.5024-2.37084 3.5491-2.37084 5.6844v17.6433c0 4.4184 3.58172 8 8 8h16.8696c4.4182 0 8-3.5816 8-8v-25.9999c0-4.41833-3.5818-8.00005-8-8.00005h-8.431c-2.1081 0-4.1311.83216-5.6291 2.31558z" fill="#191919" fill-rule="evenodd"/></svg>