<svg fill="none" height="48" viewBox="0 0 48 48" width="48" xmlns="http://www.w3.org/2000/svg"><circle cx="36" cy="12" fill="#0e5fe3" r="11"/><path clip-rule="evenodd" d="m13.0003 5.00125c1.1041 0 1.9992.8951 1.9992 1.99925v1.00085h14.0026v-1.00085c0-1.10415.8951-1.99925 1.9992-1.99925 1.1042 0 1.9993.8951 1.9993 1.99925v1.00085h1.0039c4.4166 0 7.997 3.58035 7.997 7.99705v21.0058c0 4.4167-3.5804 7.997-7.997 7.997h-24.00604c-4.41662 0-7.997-3.5803-7.997-7.997v-21.0058c0-4.4167 3.58038-7.99705 7.99701-7.99705h1.00253v-1.00085c0-1.10415.8951-1.99925 1.9993-1.99925zm16.0018 6.99865v1.0009c0 1.1041.8951 1.9992 1.9992 1.9992 1.1042 0 1.9993-.8951 1.9993-1.9992v-1.0009h1.0039c2.2083 0 3.9985 1.7901 3.9985 3.9985v21.0058c0 2.2084-1.7902 3.9985-3.9985 3.9985h-24.00604c-2.20831 0-3.99849-1.7901-3.99849-3.9985v-21.0058c0-2.2084 1.79019-3.9985 3.9985-3.9985h1.00253v1.0009c0 1.1041.8951 1.9992 1.9993 1.9992 1.1041 0 1.9992-.8951 1.9992-1.9992v-1.0009zm-17.0014 20.975c-1.1041 0-1.9992.8951-1.9992 1.9993 0 1.1041.8951 1.9992 1.9992 1.9992h20.0008c1.1042 0 1.9993-.8951 1.9993-1.9992 0-1.1042-.8951-1.9993-1.9993-1.9993z" fill="#323232" fill-rule="evenodd"/></svg>