<svg fill="none" height="48" viewBox="0 0 48 48" width="48" xmlns="http://www.w3.org/2000/svg"><path d="m40.5 16.5c0 4.6944-3.8056 8.5-8.5 8.5s-8.5-3.8056-8.5-8.5 3.8056-8.5 8.5-8.5 8.5 3.8056 8.5 8.5z" fill="#0e5fe3"/><g clip-rule="evenodd" fill="#323232" fill-rule="evenodd"><path d="m12.6047 13.4065c1.8753-1.8753 4.9158-1.8753 6.7911 0s1.8753 4.9157 0 6.791-4.9158 1.8753-6.7911 0-1.8753-4.9157 0-6.791zm-2.82842-2.8285c3.43742-3.43735 9.01052-3.43735 12.44792 0 3.4374 3.4374 3.4374 9.0106 0 12.4479-3.4374 3.4374-9.0105 3.4374-12.44792 0-3.43739-3.4373-3.43739-9.0105 0-12.4479zm-3.77628 27.422c0-3.3134 2.68657-6 6-6h8c3.3134 0 6 2.6866 6 6 0 1.1046.8954 2 2 2s2-.8954 2-2c0-5.5226-4.4774-10-10-10h-8c-5.52257 0-10 4.4774-10 10 0 1.1046.89543 2 2 2s2-.8954 2-2z"/><path d="m34 30c0-1.1046.8954-2 2-2 5.5226 0 10 4.4774 10 10 0 1.1046-.8954 2-2 2s-2-.8954-2-2c0-3.3134-2.6866-6-6-6-1.1046 0-2-.8954-2-2z"/></g></svg>