<svg fill="none" height="48" viewBox="0 0 48 48" width="48" xmlns="http://www.w3.org/2000/svg"><circle cx="11" cy="29" fill="#0e5fe3" r="11"/><path clip-rule="evenodd" d="m12.0039 21.0007c0-7.1781 5.819-12.99702 12.997-12.99702 7.1781 0 12.9971 5.81892 12.9971 12.99702 0 3.5669-1.4369 6.7981-3.7633 9.1466-.0149.0141-.0297.0284-.0443.043s-.0289.0294-.043.0443c-2.3484 2.3264-5.5797 3.7631-9.1465 3.7631-7.178 0-12.997-5.8189-12.997-12.997zm23.5185 13.35c-2.894 2.284-6.5486 3.647-10.5215 3.647-9.3872 0-16.99699-7.6098-16.99699-16.997s7.60979-16.99702 16.99699-16.99702 16.9971 7.60982 16.9971 16.99702c0 3.973-1.3631 7.6275-3.6472 10.5216l7.0599 7.0599c.7811.781.7811 2.0474 0 2.8284-.781.7811-2.0474.7811-2.8284 0z" fill="#191919" fill-rule="evenodd"/></svg>